#Comment line ignore any data following # character 
#Hierarchical Translation and Rotation (.htr) file 
[Header]	
#Header keywords are followed by a single value 
FileType HTR		#Single word string
DataType HTRS		#Translation followed by rotation and scale data
FileVersion 1		#integer
NumSegments 64		#integer
NumFrames 3		#integer
DataFrameRate 30		#integer, data frame rate in this file
EulerRotationOrder ZYX
CalibrationUnits mm
RotationUnits Degrees
GlobalAxisofGravity Y
BoneLengthAxis Y
ScaleFactor 1.00
[SegmentNames&Hierarchy]
#CHILD	PARENT
Pinger_Root GLOBAL
Pelvis Pinger_Root
L_Hip Pelvis
R_Hip Pelvis
Rear_Leg01 Pelvis
Spine1 Pelvis
L_Leg01 L_Hip
L_Leg02 L_Leg01
L_Leg03 L_Leg02
L_Foot L_Leg03
L_Toe1_01 L_Foot
L_Toe2_01 L_Foot
L_Toe3_01 L_Foot
planeAlignerLeft L_Foot
L_Toe1_02 L_Toe1_01
L_Toe1_03 L_Toe1_02
L_Toe2_02 L_Toe2_01
L_Toe2_03 L_Toe2_02
L_Toe3_02 L_Toe3_01
L_Toe3_03 L_Toe3_02
planeLockWeightLeft planeAlignerLeft
R_Leg01 R_Hip
R_Leg02 R_Leg01
R_Leg03 R_Leg02
R_Foot R_Leg03
planeAlignerRight R_Foot
R_Toe1_01 R_Foot
R_Toe2_01 R_Foot
R_Toe3_01 R_Foot
planeLockWeightRight planeAlignerRight
R_Toe1_02 R_Toe1_01
R_Toe1_03 R_Toe1_02
R_Toe2_02 R_Toe2_01
R_Toe2_03 R_Toe2_02
R_Toe3_02 R_Toe3_01
R_Toe3_03 R_Toe3_02
Rear_Leg02 Rear_Leg01
Rear_Leg03 Rear_Leg02
Rear_Leg04 Rear_Leg03
Rear_Foot Rear_Leg04
planeAlignerCenter Rear_Foot
Rear_Toe1_01 Rear_Foot
Rear_Toe2_01 Rear_Foot
Rear_Toe3_01 Rear_Foot
planeLockWeightCenter planeAlignerCenter
Rear_Toe1_02 Rear_Toe1_01
Rear_Toe1_03 Rear_Toe1_02
Rear_Toe2_02 Rear_Toe2_01
Rear_Toe2_03 Rear_Toe2_02
Rear_Toe3_02 Rear_Toe3_01
Rear_Toe3_03 Rear_Toe3_02
Back_Bone Spine1
Head Spine1
Motor_Bone Back_Bone
Ping_Mechanism Back_Bone
BN_LookIK Head
bottomMouth Head
L_Mouth01 Head
L_mouthFront Head
mouthGun Head
R_Mouth01 Head
R_mouthFront Head
TopMouth Head
weapon_bone Head
[BasePosition]
#SegmentName Tx, Ty, Tz, Rx, Ry, Rz, BoneLength
Pinger_Root 0.000000 0.000000 0.000000 -90.000000 0.000000 0.000000 10.000000 
Pelvis 0.000000 0.000000 0.000000 0.000000 0.000000 0.000000 10.000000 
L_Hip 0.000000 0.000000 0.000000 0.000000 0.000000 0.000000 10.000000 
R_Hip 0.000000 0.000000 0.000000 0.000000 0.000000 0.000000 10.000000 
Rear_Leg01 0.000000 0.000000 0.000000 0.000000 0.000000 0.000000 10.000000 
Spine1 0.000000 0.000000 0.000000 0.000000 0.000000 0.000000 10.000000 
L_Leg01 0.000000 0.000000 0.000000 0.000000 0.000000 0.000000 10.000000 
L_Leg02 0.000000 0.000000 0.000000 0.000000 0.000000 0.000000 10.000000 
L_Leg03 0.000000 0.000000 0.000000 0.000000 0.000000 0.000000 10.000000 
L_Foot 0.000000 0.000000 0.000000 0.000000 0.000000 0.000000 10.000000 
L_Toe1_01 0.000000 0.000000 0.000000 0.000000 0.000000 0.000000 10.000000 
L_Toe2_01 0.000000 0.000000 0.000000 0.000000 0.000000 0.000000 10.000000 
L_Toe3_01 0.000000 0.000000 0.000000 0.000000 0.000000 0.000000 10.000000 
planeAlignerLeft 0.000000 0.000000 0.000000 0.000000 0.000000 0.000000 10.000000 
L_Toe1_02 0.000000 0.000000 0.000000 0.000000 0.000000 0.000000 10.000000 
L_Toe1_03 0.000000 0.000000 0.000000 0.000000 0.000000 0.000000 10.000000 
L_Toe2_02 0.000000 0.000000 0.000000 0.000000 0.000000 0.000000 10.000000 
L_Toe2_03 0.000000 0.000000 0.000000 0.000000 0.000000 0.000000 10.000000 
L_Toe3_02 0.000000 0.000000 0.000000 0.000000 0.000000 0.000000 10.000000 
L_Toe3_03 0.000000 0.000000 0.000000 0.000000 0.000000 0.000000 10.000000 
planeLockWeightLeft 0.000000 0.000000 0.000000 0.000000 0.000000 0.000000 10.000000 
R_Leg01 0.000000 0.000000 0.000000 0.000000 0.000000 0.000000 10.000000 
R_Leg02 0.000000 0.000000 0.000000 0.000000 0.000000 0.000000 10.000000 
R_Leg03 0.000000 0.000000 0.000000 0.000000 0.000000 0.000000 10.000000 
R_Foot 0.000000 0.000000 0.000000 0.000000 0.000000 0.000000 10.000000 
planeAlignerRight 0.000000 0.000000 0.000000 0.000000 0.000000 0.000000 10.000000 
R_Toe1_01 0.000000 0.000000 0.000000 0.000000 0.000000 0.000000 10.000000 
R_Toe2_01 0.000000 0.000000 0.000000 0.000000 0.000000 0.000000 10.000000 
R_Toe3_01 0.000000 0.000000 0.000000 0.000000 0.000000 0.000000 10.000000 
planeLockWeightRight 0.000000 0.000000 0.000000 0.000000 0.000000 0.000000 10.000000 
R_Toe1_02 0.000000 0.000000 0.000000 0.000000 0.000000 0.000000 10.000000 
R_Toe1_03 0.000000 0.000000 0.000000 0.000000 0.000000 0.000000 10.000000 
R_Toe2_02 0.000000 0.000000 0.000000 0.000000 0.000000 0.000000 10.000000 
R_Toe2_03 0.000000 0.000000 0.000000 0.000000 0.000000 0.000000 10.000000 
R_Toe3_02 0.000000 0.000000 0.000000 0.000000 0.000000 0.000000 10.000000 
R_Toe3_03 0.000000 0.000000 0.000000 0.000000 0.000000 0.000000 10.000000 
Rear_Leg02 0.000000 0.000000 0.000000 0.000000 0.000000 0.000000 10.000000 
Rear_Leg03 0.000000 0.000000 0.000000 0.000000 0.000000 0.000000 10.000000 
Rear_Leg04 0.000000 0.000000 0.000000 0.000000 0.000000 0.000000 10.000000 
Rear_Foot 0.000000 0.000000 0.000000 0.000000 0.000000 0.000000 10.000000 
planeAlignerCenter 0.000000 0.000000 0.000000 0.000000 0.000000 0.000000 10.000000 
Rear_Toe1_01 0.000000 0.000000 0.000000 0.000000 0.000000 0.000000 10.000000 
Rear_Toe2_01 0.000000 0.000000 0.000000 0.000000 0.000000 0.000000 10.000000 
Rear_Toe3_01 0.000000 0.000000 0.000000 0.000000 0.000000 0.000000 10.000000 
planeLockWeightCenter 0.000000 0.000000 0.000000 0.000000 0.000000 0.000000 10.000000 
Rear_Toe1_02 0.000000 0.000000 0.000000 0.000000 0.000000 0.000000 10.000000 
Rear_Toe1_03 0.000000 0.000000 0.000000 0.000000 0.000000 0.000000 10.000000 
Rear_Toe2_02 0.000000 0.000000 0.000000 0.000000 0.000000 0.000000 10.000000 
Rear_Toe2_03 0.000000 0.000000 0.000000 0.000000 0.000000 0.000000 10.000000 
Rear_Toe3_02 0.000000 0.000000 0.000000 0.000000 0.000000 0.000000 10.000000 
Rear_Toe3_03 0.000000 0.000000 0.000000 0.000000 0.000000 0.000000 10.000000 
Back_Bone 0.000000 0.000000 0.000000 0.000000 0.000000 0.000000 10.000000 
Head 0.000000 0.000000 0.000000 0.000000 0.000000 0.000000 10.000000 
Motor_Bone 0.000000 0.000000 0.000000 0.000000 0.000000 0.000000 10.000000 
Ping_Mechanism 0.000000 0.000000 0.000000 0.000000 0.000000 0.000000 10.000000 
BN_LookIK 0.000000 0.000000 0.000000 0.000000 0.000000 0.000000 10.000000 
bottomMouth 0.000000 0.000000 0.000000 0.000000 0.000000 0.000000 10.000000 
L_Mouth01 0.000000 0.000000 0.000000 0.000000 0.000000 0.000000 10.000000 
L_mouthFront 0.000000 0.000000 0.000000 0.000000 0.000000 0.000000 10.000000 
mouthGun 0.000000 0.000000 0.000000 0.000000 0.000000 0.000000 10.000000 
R_Mouth01 0.000000 0.000000 0.000000 0.000000 0.000000 0.000000 10.000000 
R_mouthFront 0.000000 0.000000 0.000000 0.000000 0.000000 0.000000 10.000000 
TopMouth 0.000000 0.000000 0.000000 0.000000 0.000000 0.000000 10.000000 
weapon_bone 0.000000 0.000000 0.000000 0.000000 0.000000 0.000000 10.000000 
#Beginning of Data. Separated by tabs
#Fr	Tx	Ty	Tz	Rx	Ry	Rz	SF
[Pinger_Root]
3 0.000000 0.000000 0.000000 -0.000075 -0.000000 -0.000020 0.000000
4 0.000000 0.000000 0.000000 -0.000075 -0.000000 -0.000020 0.000000
5 0.000000 0.000000 0.000000 -0.000075 -0.000000 -0.000020 0.000000
[Pelvis]
3 28.840963 958.981506 4467.719727 -72.512917 -82.055695 65.475212 4569.572754
4 18.779346 975.281677 4504.321289 -64.636284 -78.271866 58.356770 4608.734375
5 18.486603 987.949158 4546.600586 -61.069611 -75.024376 55.733391 4652.736816
[L_Hip]
3 5.766392 125.831482 872.656799 160.057358 -46.480122 121.856003 881.701050
4 5.766392 125.831482 872.656799 159.951218 -47.651276 121.319389 881.701050
5 5.766392 125.831482 872.656799 159.836182 -49.371071 120.540207 881.701050
[R_Hip]
3 5.765438 125.836372 -872.654907 38.038586 50.731987 125.544250 881.699829
4 5.765438 125.836372 -872.654907 37.935951 51.988495 125.315819 881.699829
5 5.765438 125.836372 -872.654907 37.821976 53.244736 125.077011 881.699829
[Rear_Leg01]
3 -192.298416 -925.602966 -0.001907 175.861984 6.593187 -166.640640 945.367432
4 -192.298416 -925.602966 -0.001907 -177.621674 10.337729 -175.449326 945.367432
5 -192.298416 -925.602966 -0.001907 -172.014999 12.022758 176.831787 945.367432
[Spine1]
3 290.604584 5.007505 0.000477 5.688355 -3.351414 15.583562 290.647736
4 290.604584 5.007505 0.000477 4.264293 -5.619711 12.488336 290.647736
5 290.604584 5.007505 0.000477 2.908192 -7.474191 9.864140 290.647736
[L_Leg01]
3 761.932007 -0.002384 -0.069261 18.688065 -20.759111 -9.167936 761.932068
4 761.932007 -0.002384 -0.069261 16.057207 -25.128927 -10.441826 761.932068
5 761.932007 -0.002384 -0.069261 15.357209 -29.234777 -13.846406 761.932068
[L_Leg02]
3 1441.140503 -0.000954 -0.000715 1.799740 -0.218218 -126.075455 1441.140503
4 1441.140503 -0.000954 -0.000715 0.886831 -0.131170 -121.372528 1441.140503
5 1441.140503 -0.000954 -0.000715 -0.024733 0.022613 -114.947769 1441.140503
[L_Leg03]
3 1686.963989 -0.000715 -0.000954 -0.014048 0.006632 114.529655 1686.963989
4 1686.963989 -0.000715 -0.000954 -0.004567 0.000856 111.241646 1686.963989
5 1686.963989 -0.000715 -0.000954 0.009221 -0.001492 108.388611 1686.963989
[L_Foot]
3 3041.570068 -30.715107 11.297464 2.886860 13.356191 56.472744 3041.746094
4 3041.570068 -30.715107 11.297464 3.318779 13.637265 56.374821 3041.746094
5 3041.570068 -30.715107 11.297464 3.558253 13.902694 55.604347 3041.746094
[L_Toe1_01]
3 -188.216690 -224.732346 -21.137953 94.071800 -7.289335 -173.264008 293.899567
4 -188.216690 -224.732346 -21.137953 94.345093 -7.628902 -174.173111 293.899567
5 -188.216690 -224.732346 -21.137953 94.623985 -7.964096 -175.084503 293.899567
[L_Toe2_01]
3 200.746536 -219.926590 148.838394 -90.851311 -27.674328 -49.600235 332.896027
4 200.746536 -219.926590 148.838394 -91.694473 -29.113091 -46.430763 332.896027
5 200.746536 -219.926590 148.838394 -92.640633 -30.508141 -43.191833 332.896027
[L_Toe3_01]
3 188.832520 -219.859131 -191.078659 -99.602936 14.549410 -64.214409 347.140900
4 188.832520 -219.859131 -191.078659 -99.465996 15.164757 -60.551929 347.140900
5 188.832520 -219.859131 -191.078659 -99.288086 15.770376 -56.877102 347.140900
[planeAlignerLeft]
3 17.782896 -547.963928 107.562332 169.306686 -76.298256 89.968483 558.704163
4 3.660430 -505.642761 115.559273 169.306686 -76.298271 89.968506 518.692566
5 -10.462036 -463.321564 123.556213 169.306686 -76.298271 89.968506 479.627411
[L_Toe1_02]
3 413.761139 0.000477 0.000000 0.001385 -25.840401 0.001385 413.761139
4 413.761139 0.000477 0.000000 0.001386 -25.754128 0.001386 413.761139
5 413.761139 0.000477 0.000000 0.001390 -25.146423 0.001390 413.761139
[L_Toe1_03]
3 464.317322 0.000358 -0.000089 0.003464 50.389225 0.003464 464.317322
4 464.317322 0.000358 -0.000089 0.003194 46.877705 0.003194 464.317322
5 464.317322 0.000358 -0.000089 0.002914 42.459568 0.002914 464.317322
[L_Toe2_02]
3 342.235809 -0.000477 0.000238 0.001184 -74.579132 0.001184 342.235809
4 342.235809 -0.000477 0.000238 0.001182 -76.099075 0.001182 342.235809
5 342.235809 -0.000477 0.000238 0.001181 -77.303574 0.001181 342.235809
[L_Toe2_03]
3 420.210846 -0.000715 0.000000 -179.954697 88.600029 -179.951202 420.210846
4 420.210846 -0.000715 0.000000 -179.991562 83.532066 -179.988068 420.210846
5 420.210846 -0.000715 0.000000 -179.995758 79.008934 -179.992249 420.210846
[L_Toe3_02]
3 329.270111 0.000954 0.000000 0.001176 -82.137657 0.001176 329.270111
4 329.270111 0.000954 0.000000 0.001176 -83.249474 0.001176 329.270111
5 329.270111 0.000954 0.000000 0.002926 -83.837730 0.002926 329.270111
[L_Toe3_03]
3 439.137451 -0.001907 0.000954 -179.998245 71.239792 -179.994705 439.137451
4 439.137451 -0.001907 0.000954 179.995941 64.790535 -179.998688 439.137451
5 439.137451 -0.001907 0.000954 179.992065 58.341217 179.999344 439.137451
[planeLockWeightLeft]
3 -0.001068 0.000000 -0.000296 -0.011826 -0.004376 0.005620 0.001108
4 -0.001068 0.000000 -0.000296 -0.011826 -0.004376 0.005620 0.001108
5 -0.001068 0.000000 -0.000296 -0.011826 -0.004376 0.005620 0.001108
[R_Leg01]
3 761.455627 -0.001907 -0.000358 113.242424 -14.713615 29.882498 761.455688
4 761.455627 -0.001907 -0.000358 108.562996 -20.907787 26.002012 761.455688
5 761.455627 -0.001907 -0.000358 105.732452 -26.573931 23.378868 761.455688
[R_Leg02]
3 1441.140625 0.000000 -0.000238 -1.664509 -0.325880 -128.590408 1441.140625
4 1441.140625 0.000000 -0.000238 -1.890120 -0.408600 -136.146500 1441.140625
5 1441.140625 0.000000 -0.000238 -2.028161 -0.434713 -141.764725 1441.140625
[R_Leg03]
3 1686.963989 0.000954 0.001431 0.081715 -0.047092 132.852570 1686.963989
4 1686.963989 0.000954 0.001431 0.086054 -0.045483 133.343155 1686.963989
5 1686.963989 0.000954 0.001431 0.081724 -0.047077 132.830978 1686.963989
[R_Foot]
3 3041.560059 -30.531288 -11.204481 2.243448 -31.917709 57.423813 3041.734131
4 3041.560059 -30.531288 -11.204481 4.324218 -37.254642 58.898708 3041.734131
5 3041.560059 -30.531288 -11.204481 5.850563 -40.915821 60.106388 3041.734131
[planeAlignerRight]
3 -128.356003 -626.731567 -312.394714 -36.577126 -71.339012 -64.343956 711.939697
4 -129.371323 -671.057800 -311.965454 -36.577137 -71.339012 -64.343925 751.250977
5 -130.222778 -708.196167 -311.608093 -36.577137 -71.339012 -64.343925 784.601440
[R_Toe1_01]
3 -188.383347 -224.864899 21.052242 76.579491 -0.204397 -169.113068 294.101532
4 -188.383347 -224.864899 21.052242 76.406387 0.020562 -165.934814 294.101532
5 -188.383347 -224.864899 21.052242 76.219902 0.236887 -163.220947 294.101532
[R_Toe2_01]
3 200.637817 -220.002121 -148.787384 -93.217758 31.421614 -62.022633 332.857574
4 200.637817 -220.002121 -148.787384 -94.202942 30.345718 -63.937244 332.857574
5 200.637817 -220.002121 -148.787384 -95.031509 29.363960 -65.157089 332.857574
[R_Toe3_01]
3 188.606735 -220.092957 191.126343 -73.058884 -7.585125 -76.494461 347.192566
4 188.606735 -220.092957 191.126343 -72.957436 -6.981829 -78.362869 347.192566
5 188.606735 -220.092957 191.126343 -72.802254 -6.567319 -79.406609 347.192566
[planeLockWeightRight]
3 999.999695 0.000366 -0.000305 -0.011823 -0.004379 -0.000027 999.999695
4 999.999695 0.000244 -0.000305 -0.011823 -0.004379 -0.000027 999.999695
5 999.999695 0.000122 -0.000305 -0.011823 -0.004379 -0.000027 999.999695
[R_Toe1_02]
3 413.762085 0.000477 -0.000119 0.001391 -25.111542 0.001391 413.762085
4 413.762085 0.000477 -0.000119 0.001389 -25.337582 0.001389 413.762085
5 413.762085 0.000477 -0.000119 0.001387 -25.563612 0.001387 413.762085
[R_Toe1_03]
3 464.317810 0.000000 0.001088 0.005804 66.667900 0.005804 464.317810
4 464.317810 0.000000 0.001088 0.005166 63.729752 0.005166 464.317810
5 464.317810 0.000000 0.001088 0.004655 60.791573 0.004655 464.317810
[R_Toe2_02]
3 342.234741 -0.000954 0.000238 0.001204 -64.002533 0.001204 342.234741
4 342.234741 -0.000954 0.000238 0.001214 -60.616398 0.001214 342.234741
5 342.234741 -0.000954 0.000238 0.001223 -57.230267 0.001223 342.234741
[R_Toe2_03]
3 420.210846 0.000715 -0.000268 -0.004733 67.534309 -0.001168 420.210846
4 420.210846 0.000715 -0.000268 -0.004167 61.860977 -0.000562 420.210846
5 420.210846 0.000715 -0.000268 -0.003828 56.654556 -0.000178 420.210846
[R_Toe3_02]
3 329.270355 -0.000477 -0.000954 0.001190 -70.786125 0.001190 329.270355
4 329.270355 -0.000477 -0.000954 -0.000587 -66.743446 -0.000587 329.270355
5 329.270355 -0.000477 -0.000954 -0.002391 -62.700775 -0.002391 329.270355
[R_Toe3_03]
3 439.137939 0.000238 0.001431 0.009022 75.051918 0.009022 439.137939
4 439.137939 0.000238 0.001431 0.006030 67.552170 0.006030 439.137939
5 439.137939 0.000238 0.001431 0.004660 60.825977 0.004660 439.137939
[Rear_Leg02]
3 1162.777710 -0.029802 0.005960 1.618810 -3.496304 -135.515549 1162.777710
4 1162.777710 -0.029802 0.005960 3.308173 -3.561721 -152.514023 1162.777710
5 1162.777710 -0.029802 0.005960 4.632007 -4.115283 -155.769455 1162.777710
[Rear_Leg03]
3 607.192505 -0.013351 -0.073195 0.010454 -0.005184 69.106262 607.192505
4 607.192505 -0.013351 -0.073195 0.010197 -0.005672 74.529030 607.192505
5 607.192505 -0.013351 -0.073195 0.010127 -0.005797 75.933853 607.192505
[Rear_Leg04]
3 995.874512 -0.020504 -0.011921 -0.040378 -0.018401 68.363319 995.874573
4 995.874512 -0.020504 -0.011921 -0.045519 -0.017216 81.983276 995.874573
5 995.874512 -0.020504 -0.011921 -0.042509 -0.018913 86.185654 995.874573
[Rear_Foot]
3 3096.176270 -0.067472 -0.041425 -65.625374 86.116570 116.405205 3096.176270
4 3096.176270 -0.067472 -0.041425 -35.801193 81.775505 133.060837 3096.176270
5 3096.176270 -0.067472 -0.041425 -45.420853 81.329979 120.343086 3096.176270
[planeAlignerCenter]
3 11.908846 4.054565 -772.876587 12.240772 -0.001473 179.998184 772.978943
4 25.934563 -35.779263 -765.847229 12.240773 -0.001473 179.998184 767.121033
5 36.873798 -89.183807 -753.755127 12.240772 -0.001473 179.998184 759.908081
[Rear_Toe1_01]
3 0.653352 83.966492 -371.173737 -0.084350 41.697548 89.791565 380.553192
4 0.653352 83.966492 -371.173737 -0.599745 40.101707 88.962029 380.553192
5 0.653352 83.966492 -371.173737 -1.073927 38.500515 88.169579 380.553192
[Rear_Toe2_01]
3 178.200760 -294.826019 -362.060547 -6.902483 34.198429 -65.372086 499.765686
4 178.200760 -294.826019 -362.060547 -6.969285 32.707333 -65.853203 499.765686
5 178.200760 -294.826019 -362.060547 -6.893393 30.411524 -66.173447 499.765686
[Rear_Toe3_01]
3 -153.359680 -308.780914 -362.060852 3.373460 33.494087 -112.284790 499.952881
4 -153.359680 -308.780914 -362.060852 3.772145 32.155754 -110.557220 499.952881
5 -153.359680 -308.780914 -362.060852 4.063210 30.234516 -109.075294 499.952881
[planeLockWeightCenter]
3 500.000122 0.000381 -0.000076 -0.011814 -0.004373 -0.000015 500.000122
4 1000.000244 0.000458 -0.000153 -0.011814 -0.004373 -0.000015 1000.000244
5 500.000061 0.000381 -0.000076 -0.011814 -0.004373 -0.000015 500.000061
[Rear_Toe1_02]
3 379.707825 0.194073 0.000477 -0.000767 -33.624729 0.000838 379.707855
4 379.707825 0.194073 0.000477 -0.000767 -33.624729 0.000838 379.707855
5 379.707825 0.194073 0.000477 -0.000767 -33.624729 0.000838 379.707855
[Rear_Toe1_03]
3 500.129700 0.165701 0.000119 -0.000287 50.028748 0.007155 500.129761
4 500.129700 0.165701 0.000119 -0.004168 61.884064 -0.000564 500.129761
5 500.129700 0.165701 0.000119 0.007362 71.654068 0.007362 500.129761
[Rear_Toe2_02]
3 340.494507 0.000238 -0.000954 0.001190 -70.871086 0.001190 340.494507
4 340.494507 0.000238 -0.000954 0.001203 -64.457970 0.001203 340.494507
5 340.494507 0.000238 -0.000954 0.001226 -56.515976 0.001226 340.494507
[Rear_Toe2_03]
3 433.103577 0.000000 0.000238 0.007257 71.385880 0.007257 433.103546
4 433.103577 0.000000 0.000238 0.004851 61.999424 0.004851 433.103546
5 433.103577 0.000000 0.000238 0.003588 51.819996 0.003588 433.103546
[Rear_Toe3_02]
3 340.494141 -0.000358 -0.000477 0.001193 -69.541130 0.001193 340.494171
4 340.494141 -0.000358 -0.000477 0.007275 -64.311867 -0.008454 340.494171
5 340.494141 -0.000358 -0.000477 -0.002418 -57.845257 -0.002418 340.494171
[Rear_Toe3_03]
3 433.103577 0.001431 -0.000238 0.006543 69.334579 0.006543 433.103546
4 433.103577 0.001431 -0.000238 -0.000556 61.797585 -0.004162 433.103546
5 433.103577 0.001431 -0.000238 0.000009 53.442142 -0.003674 433.103546
[Back_Bone]
3 1312.175781 -701.934692 0.000954 1.247663 0.102761 -85.509262 1488.125488
4 1312.175781 -701.934692 0.000954 1.133070 0.153433 -85.459633 1488.125488
5 1312.175781 -701.934692 0.000954 1.018520 0.204203 -85.410080 1488.125488
[Head]
3 1406.159424 809.709290 0.001431 -0.038687 -1.393857 8.194832 1622.625488
4 1406.159424 809.709290 0.001431 -0.104462 -1.265163 8.845429 1622.625488
5 1406.159424 809.709290 0.001431 -0.168771 -1.135726 9.495872 1622.625488
[Motor_Bone]
3 1158.364380 -417.834747 0.000477 -0.238525 0.080502 -105.910851 1231.419434
4 1158.364380 -417.834747 0.000477 -0.310095 0.082705 -105.908417 1231.419434
5 1158.364380 -417.834747 0.000477 -0.381665 0.084912 -105.905983 1231.419434
[Ping_Mechanism]
3 1250.477661 -446.439209 17.579224 0.000103 -0.000053 82.120995 1327.897339
4 1262.776978 -449.334076 30.216307 0.000103 -0.000053 82.120995 1340.678833
5 1275.076294 -452.229004 42.853390 0.000103 -0.000053 82.120995 1353.575562
[BN_LookIK]
3 193.241119 1380.371704 -0.002861 0.000000 89.965736 -31.038179 1393.832153
4 193.241119 1380.371704 -0.002861 0.000000 89.965736 -31.038179 1393.832153
5 193.241119 1380.371704 -0.002861 0.000000 89.965736 -31.038179 1393.832153
[bottomMouth]
3 -435.092926 615.759399 -0.000954 -0.000022 0.000016 73.527184 753.966492
4 -435.092926 615.759399 -0.000954 -0.000022 0.000016 73.527184 753.966492
5 -435.092926 615.759399 -0.000954 -0.000022 0.000016 73.527184 753.966492
[L_Mouth01]
3 554.440979 7.658243 838.222046 150.204178 23.759130 109.605339 1005.027161
4 554.440979 7.658243 838.222046 150.204178 23.759130 109.605339 1005.027161
5 554.440979 7.658243 838.222046 150.204178 23.759130 109.605339 1005.027161
[L_mouthFront]
3 551.629089 934.514771 339.150421 0.000081 2.804060 79.119301 1136.941284
4 551.629089 934.514771 339.150421 0.000081 2.804060 79.119301 1136.941284
5 551.629089 934.514771 339.150421 0.000081 2.804060 79.119301 1136.941284
[mouthGun]
3 55.332661 1627.420898 0.000000 0.000023 0.000009 -11.038128 1628.361328
4 55.332661 1627.420898 0.000000 0.000023 0.000009 -11.038128 1628.361328
5 55.332661 1627.420898 0.000000 0.000023 0.000009 -11.038128 1628.361328
[R_Mouth01]
3 554.442383 7.659197 -838.223938 29.795891 -23.759109 109.605331 1005.029541
4 554.442383 7.659197 -838.223938 29.795891 -23.759109 109.605331 1005.029541
5 554.442383 7.659197 -838.223938 29.795891 -23.759109 109.605331 1005.029541
[R_mouthFront]
3 551.629089 934.514282 -339.151367 0.000029 -2.803930 79.119133 1136.941162
4 551.629089 934.514282 -339.151367 0.000029 -2.803930 79.119133 1136.941162
5 551.629089 934.514282 -339.151367 0.000029 -2.803930 79.119133 1136.941162
[TopMouth]
3 461.269867 -56.106091 -0.008583 -0.000059 -0.000268 92.025169 464.669525
4 461.269867 -56.106091 -0.008583 -0.000059 -0.000268 92.025169 464.669525
5 461.269867 -56.106091 -0.008583 -0.000059 -0.000268 92.025169 464.669525
[weapon_bone]
3 -987.239868 1448.372803 0.001431 0.000000 89.965736 -31.038221 1752.833740
4 -987.239868 1448.372803 0.001431 0.000000 89.965736 -31.038221 1752.833740
5 -987.239868 1448.372803 0.001431 0.000000 89.965736 -31.038221 1752.833740
